<svg width="32" height="21" viewBox="0 0 32 21" fill="none" xmlns="http://www.w3.org/2000/svg">
<g clip-path="url(#clip0_1_2997)">
<rect y="0.5" width="32" height="20" rx="1" fill="#414141"/>
<path fill-rule="evenodd" clip-rule="evenodd" d="M0 -1.5V22.5H32V-1.5H0Z" fill="#4EC7EE"/>
<mask id="mask0_1_2997" style="mask-type:luminance" maskUnits="userSpaceOnUse" x="0" y="-2" width="32" height="25">
<path fill-rule="evenodd" clip-rule="evenodd" d="M0 -1.5V22.5H32V-1.5H0Z" fill="white"/>
</mask>
<g mask="url(#mask0_1_2997)">
<path d="M4.08996 21.7372C4.0265 22.2072 4.32755 22.542 4.83258 22.7575C5.51149 23.0471 6.19653 22.7759 6.82667 22.0777L6.01006 21.3407C5.73015 21.6508 5.52787 21.7703 5.37173 21.7683C5.67746 21.5499 6.06917 21.2802 6.5463 20.9598L6.77531 20.6281C6.95925 19.8391 6.38731 19.4116 5.51507 19.4116C5.00131 19.4116 4.59057 19.5132 4.32997 19.7317C3.90184 20.0907 3.97514 20.6638 4.42568 20.9619C4.46142 20.9855 4.49769 21.0068 4.53445 21.0258C4.28171 21.2392 4.12745 21.4596 4.08996 21.7372Z" fill="#FFE402"/>
<path d="M4.56491 20.9956C4.56491 20.9956 4.68969 20.719 4.6273 20.5751" stroke="#FFE402" stroke-width="1.1"/>
<path d="M8.56939 21.7372C8.63285 22.2072 8.3318 22.542 7.82677 22.7575C7.14786 23.0471 6.46282 22.7759 5.83268 22.0777L6.64929 21.3407C6.9292 21.6508 7.13147 21.7703 7.28762 21.7683C6.98189 21.5499 6.59018 21.2802 6.11304 20.9598L5.88403 20.6281C5.7001 19.8391 6.27203 19.4116 7.14428 19.4116C7.65803 19.4116 8.06877 19.5132 8.32937 19.7317C8.75751 20.0907 8.68421 20.6638 8.23367 20.9619C8.19793 20.9855 8.16166 21.0068 8.12489 21.0258C8.37764 21.2392 8.5319 21.4596 8.56939 21.7372Z" fill="#FFE402"/>
<path d="M8.59576 20.7693L7.5931 21.2217C7.45236 20.9098 7.41031 20.6264 7.52743 20.3562L8.53665 20.7938C8.57058 20.7155 8.57013 20.7125 8.59576 20.7693Z" fill="#FFE402"/>
<path d="M4.08996 -0.736757C4.0265 -1.20676 4.32755 -1.54152 4.83258 -1.75698C5.51149 -2.04662 6.19653 -1.7754 6.82667 -1.07719L6.01006 -0.3402C5.73015 -0.650355 5.52787 -0.76985 5.37173 -0.767819C5.67746 -0.549399 6.06917 -0.279758 6.5463 0.0406631L6.77531 0.372389C6.95925 1.16138 6.38731 1.58891 5.51507 1.58891C5.00131 1.58891 4.59057 1.48725 4.32997 1.26875C3.90184 0.909771 3.97514 0.336723 4.42568 0.0385872C4.46142 0.0149391 4.49769 -0.00634265 4.53445 -0.025304C4.28171 -0.238747 4.12745 -0.459102 4.08996 -0.736757Z" fill="#FFE402"/>
<path d="M8.56939 -0.736757C8.63285 -1.20676 8.3318 -1.54152 7.82677 -1.75698C7.14786 -2.04662 6.46282 -1.7754 5.83268 -1.07719L6.64929 -0.3402C6.9292 -0.650355 7.13147 -0.76985 7.28762 -0.767819C6.98189 -0.549399 6.59018 -0.279758 6.11304 0.0406631L5.88403 0.372389C5.7001 1.16138 6.27203 1.58891 7.14428 1.58891C7.65803 1.58891 8.06877 1.48725 8.32937 1.26875C8.75751 0.909771 8.68421 0.336723 8.23367 0.0385872C8.19793 0.0149391 8.16166 -0.00634265 8.12489 -0.025304C8.37764 -0.238747 8.5319 -0.459102 8.56939 -0.736757Z" fill="#FFE402"/>
<path fill-rule="evenodd" clip-rule="evenodd" d="M5.09379 18.563C4.46277 18.5812 4.07016 18.7113 4.07016 19.3196C4.07016 19.9903 4.7218 20.2002 5.41509 20.2002C6.04311 20.2002 6.75062 19.8104 6.75062 19.1124C6.75062 18.6877 6.21066 17.8307 4.85103 15.973C4.80391 15.9291 4.77796 15.9068 4.75717 15.9066C4.83963 15.8607 4.98483 15.807 5.17644 15.807C5.24296 15.807 5.3294 15.8406 5.41509 15.8837V16.6123H6.85456V16.0623C6.85456 15.4409 5.936 14.707 5.17644 14.707C4.51308 14.707 3.98054 15.0225 3.71079 15.4765C3.44421 15.9251 3.64806 16.3558 4.03089 16.6983C4.60058 17.484 5.0429 18.1344 5.32031 18.5617C5.21839 18.5609 5.16243 18.561 5.09379 18.563ZM5.1614 19.0702C5.14144 19.0657 5.12224 19.0609 5.1043 19.0557C5.11766 19.0697 5.17016 19.1323 5.17016 19.3196C5.17016 19.4216 5.16524 19.4933 5.15866 19.5438C4.97307 19.3801 4.92119 19.0947 5.057 18.875L5.06036 18.8695L5.03965 18.8283C5.0424 18.827 5.04515 18.8255 5.04786 18.8242C5.07983 18.8077 5.10611 18.7942 5.06036 18.8695L5.1614 19.0702ZM5.1043 19.0557L5.08523 19.0498C5.08728 19.0505 5.08997 19.0518 5.09312 19.0538L5.1043 19.0557ZM5.65062 19.1124C5.65062 19.0936 5.64424 19.0824 5.63321 19.0764L5.63961 19.0834C5.64692 19.0985 5.65062 19.1082 5.65062 19.1124Z" fill="#FFE402"/>
<path fill-rule="evenodd" clip-rule="evenodd" d="M7.56554 18.563C8.19656 18.5812 8.58917 18.7113 8.58917 19.3196C8.58917 19.9903 7.93753 20.2002 7.24424 20.2002C6.61622 20.2002 5.90871 19.8104 5.90871 19.1124C5.90871 18.6877 6.44867 17.8307 7.8083 15.973C7.85543 15.9291 7.88138 15.9068 7.90216 15.9066C7.81971 15.8607 7.6745 15.807 7.4829 15.807C7.41638 15.807 7.32993 15.8406 7.24424 15.8837V16.6123H5.80477V16.0623C5.80477 15.4409 6.72333 14.707 7.4829 14.707C8.14625 14.707 8.6788 15.0225 8.94854 15.4765C9.21512 15.9251 9.01127 16.3558 8.62844 16.6983C8.05875 17.484 7.61643 18.1344 7.33903 18.5617C7.44094 18.5609 7.49691 18.561 7.56554 18.563ZM7.49793 19.0702C7.51789 19.0657 7.53709 19.0609 7.55503 19.0557C7.54167 19.0697 7.48917 19.1323 7.48917 19.3196C7.48917 19.4216 7.49409 19.4933 7.50067 19.5438C7.68626 19.3801 7.73814 19.0947 7.60233 18.875L7.59897 18.8695L7.61968 18.8283C7.61693 18.827 7.61418 18.8255 7.61148 18.8242C7.5795 18.8077 7.55322 18.7942 7.59897 18.8695L7.49793 19.0702ZM7.55503 19.0557L7.57411 19.0498C7.57205 19.0505 7.56936 19.0518 7.56621 19.0538L7.55503 19.0557ZM7.00871 19.1124C7.00871 19.0936 7.01509 19.0824 7.02613 19.0764L7.01972 19.0834C7.01241 19.0985 7.00871 19.1082 7.00871 19.1124Z" fill="#FFE402"/>
<path fill-rule="evenodd" clip-rule="evenodd" d="M5.09379 11.855C4.46277 11.8368 4.07016 11.7066 4.07016 11.0984C4.07016 10.4276 4.7218 10.2178 5.41509 10.2178C6.04311 10.2178 6.75062 10.6076 6.75062 11.3056C6.75062 11.7303 6.21066 12.5872 4.85103 14.4449C4.80391 14.4888 4.77796 14.5112 4.75717 14.5113C4.83963 14.5573 4.98483 14.611 5.17644 14.611C5.24296 14.611 5.3294 14.5774 5.41509 14.5343V13.8057H6.85456V14.3557C6.85456 14.9771 5.936 15.711 5.17644 15.711C4.51308 15.711 3.98054 15.3955 3.71079 14.9415C3.44421 14.4928 3.64806 14.0622 4.03089 13.7196C4.60058 12.9339 5.0429 12.2836 5.32031 11.8562C5.21839 11.8571 5.16243 11.857 5.09379 11.855ZM5.1614 11.3478C5.14144 11.3522 5.12224 11.3571 5.1043 11.3623C5.11766 11.3483 5.17016 11.2857 5.17016 11.0984C5.17016 10.9964 5.16524 10.9246 5.15866 10.8742C4.97307 11.0379 4.92119 11.3233 5.057 11.543L5.06036 11.5485L5.03965 11.5896C5.0424 11.591 5.04515 11.5924 5.04786 11.5938C5.07983 11.6103 5.10611 11.6238 5.06036 11.5485L5.1614 11.3478ZM5.1043 11.3623L5.08523 11.3681C5.08728 11.3675 5.08997 11.3662 5.09312 11.3642L5.1043 11.3623ZM5.65062 11.3056C5.65062 11.3244 5.64424 11.3356 5.63321 11.3415L5.63961 11.3345C5.64692 11.3195 5.65062 11.3098 5.65062 11.3056Z" fill="#FFE402"/>
<path fill-rule="evenodd" clip-rule="evenodd" d="M7.56554 11.855C8.19656 11.8368 8.58917 11.7066 8.58917 11.0984C8.58917 10.4276 7.93753 10.2178 7.24424 10.2178C6.61622 10.2178 5.90871 10.6076 5.90871 11.3056C5.90871 11.7303 6.44867 12.5872 7.8083 14.4449C7.85543 14.4888 7.88138 14.5112 7.90216 14.5113C7.81971 14.5573 7.6745 14.611 7.4829 14.611C7.41638 14.611 7.32993 14.5774 7.24424 14.5343V13.8057H5.80477V14.3557C5.80477 14.9771 6.72333 15.711 7.4829 15.711C8.14625 15.711 8.6788 15.3955 8.94854 14.9415C9.21512 14.4928 9.01127 14.0622 8.62844 13.7196C8.05875 12.9339 7.61643 12.2836 7.33903 11.8562C7.44094 11.8571 7.49691 11.857 7.56554 11.855ZM7.49793 11.3478C7.51789 11.3522 7.53709 11.3571 7.55503 11.3623C7.54167 11.3483 7.48917 11.2857 7.48917 11.0984C7.48917 10.9964 7.49409 10.9246 7.50067 10.8742C7.68626 11.0379 7.73814 11.3233 7.60233 11.543L7.59897 11.5485L7.61968 11.5896C7.61693 11.591 7.61418 11.5924 7.61148 11.5938C7.5795 11.6103 7.55322 11.6238 7.59897 11.5485L7.49793 11.3478ZM7.55503 11.3623L7.57411 11.3681C7.57205 11.3675 7.56936 11.3662 7.56621 11.3642L7.55503 11.3623ZM7.00871 11.3056C7.00871 11.3244 7.01509 11.3356 7.02613 11.3415L7.01972 11.3345C7.01241 11.3195 7.00871 11.3098 7.00871 11.3056Z" fill="#FFE402"/>
<path fill-rule="evenodd" clip-rule="evenodd" d="M5.09379 9.14551C4.46277 9.16367 4.07016 9.29384 4.07016 9.90212C4.07016 10.5729 4.7218 10.7827 5.41509 10.7827C6.04311 10.7827 6.75062 10.3929 6.75062 9.69487C6.75062 9.2702 6.21066 8.41324 4.85103 6.55555C4.80391 6.51166 4.77796 6.48929 4.75717 6.48915C4.83963 6.44324 4.98483 6.38947 5.17644 6.38947C5.24296 6.38947 5.3294 6.42312 5.41509 6.46622V7.19478H6.85456V6.64478C6.85456 6.02339 5.936 5.28947 5.17644 5.28947C4.51308 5.28947 3.98054 5.60503 3.71079 6.059C3.44421 6.50764 3.64806 6.93831 4.03089 7.28086C4.60058 8.06657 5.0429 8.71693 5.32031 9.14425C5.21839 9.1434 5.16243 9.14354 5.09379 9.14551ZM5.1614 9.6527C5.14144 9.64826 5.12224 9.64341 5.1043 9.6382C5.11766 9.65221 5.17016 9.71479 5.17016 9.90212C5.17016 10.0041 5.16524 10.0759 5.15866 10.1263C4.97307 9.96259 4.92119 9.67718 5.057 9.45748L5.06036 9.452L5.03965 9.41086C5.0424 9.40948 5.04515 9.40807 5.04786 9.40667C5.07983 9.39021 5.10611 9.37668 5.06036 9.452L5.1614 9.6527ZM5.1043 9.6382L5.08523 9.63237C5.08728 9.63303 5.08997 9.6343 5.09312 9.63633L5.1043 9.6382ZM5.65062 9.69487C5.65062 9.67609 5.64424 9.66493 5.63321 9.65895L5.63961 9.66596C5.64692 9.681 5.65062 9.69071 5.65062 9.69487Z" fill="#FFE402"/>
<path fill-rule="evenodd" clip-rule="evenodd" d="M7.56554 9.14551C8.19656 9.16367 8.58917 9.29384 8.58917 9.90212C8.58917 10.5729 7.93753 10.7827 7.24424 10.7827C6.61622 10.7827 5.90871 10.3929 5.90871 9.69487C5.90871 9.2702 6.44867 8.41324 7.8083 6.55555C7.85543 6.51166 7.88138 6.48929 7.90216 6.48915C7.81971 6.44324 7.6745 6.38947 7.4829 6.38947C7.41638 6.38947 7.32993 6.42312 7.24424 6.46622V7.19478H5.80477V6.64478C5.80477 6.02339 6.72333 5.28947 7.4829 5.28947C8.14625 5.28947 8.6788 5.60503 8.94854 6.059C9.21512 6.50764 9.01127 6.93831 8.62844 7.28086C8.05875 8.06657 7.61643 8.71693 7.33903 9.14425C7.44094 9.1434 7.49691 9.14354 7.56554 9.14551ZM7.49793 9.6527C7.51789 9.64826 7.53709 9.64341 7.55503 9.6382C7.54167 9.65221 7.48917 9.71479 7.48917 9.90212C7.48917 10.0041 7.49409 10.0759 7.50067 10.1263C7.68626 9.96259 7.73814 9.67718 7.60233 9.45748L7.59897 9.452L7.61968 9.41086C7.61693 9.40948 7.61418 9.40807 7.61148 9.40667C7.5795 9.39021 7.55322 9.37668 7.59897 9.452L7.49793 9.6527ZM7.55503 9.6382L7.57411 9.63237C7.57205 9.63303 7.56936 9.6343 7.56621 9.63633L7.55503 9.6382ZM7.00871 9.69487C7.00871 9.67609 7.01509 9.66493 7.02613 9.65895L7.01972 9.66596C7.01241 9.681 7.00871 9.69071 7.00871 9.69487Z" fill="#FFE402"/>
<path fill-rule="evenodd" clip-rule="evenodd" d="M5.09379 2.43701C4.46277 2.41885 4.07016 2.28868 4.07016 1.6804C4.07016 1.00965 4.7218 0.799805 5.41509 0.799805C6.04311 0.799805 6.75062 1.18959 6.75062 1.88765C6.75062 2.31232 6.21066 3.16928 4.85103 5.02697C4.80391 5.07086 4.77796 5.09323 4.75717 5.09337C4.83963 5.13928 4.98483 5.19305 5.17644 5.19305C5.24296 5.19305 5.3294 5.1594 5.41509 5.1163V4.38774H6.85456V4.93774C6.85456 5.55913 5.936 6.29305 5.17644 6.29305C4.51308 6.29305 3.98054 5.97749 3.71079 5.52352C3.44421 5.07488 3.64806 4.64421 4.03089 4.30166C4.60058 3.51595 5.0429 2.86559 5.32031 2.43827C5.21839 2.43912 5.16243 2.43898 5.09379 2.43701ZM5.1614 1.92982C5.14144 1.93426 5.12224 1.93911 5.1043 1.94432C5.11766 1.93031 5.17016 1.86773 5.17016 1.6804C5.17016 1.57841 5.16524 1.50666 5.15866 1.45621C4.97307 1.61993 4.92119 1.90534 5.057 2.12503L5.06036 2.13052L5.03965 2.17165C5.0424 2.17304 5.04515 2.17445 5.04786 2.17585C5.07983 2.19231 5.10611 2.20584 5.06036 2.13052L5.1614 1.92982ZM5.1043 1.94432L5.08523 1.95015C5.08728 1.94949 5.08997 1.94822 5.09312 1.94618L5.1043 1.94432ZM5.65062 1.88765C5.65062 1.90643 5.64424 1.91759 5.63321 1.92357L5.63961 1.91656C5.64692 1.90152 5.65062 1.89181 5.65062 1.88765Z" fill="#FFE402"/>
<path fill-rule="evenodd" clip-rule="evenodd" d="M7.56554 2.43701C8.19656 2.41885 8.58917 2.28868 8.58917 1.6804C8.58917 1.00965 7.93753 0.799805 7.24424 0.799805C6.61622 0.799805 5.90871 1.18959 5.90871 1.88765C5.90871 2.31232 6.44867 3.16928 7.8083 5.02697C7.85543 5.07086 7.88138 5.09323 7.90216 5.09337C7.81971 5.13928 7.6745 5.19305 7.4829 5.19305C7.41638 5.19305 7.32993 5.1594 7.24424 5.1163V4.38774H5.80477V4.93774C5.80477 5.55913 6.72333 6.29305 7.4829 6.29305C8.14625 6.29305 8.6788 5.97749 8.94854 5.52352C9.21512 5.07488 9.01127 4.64421 8.62844 4.30166C8.05875 3.51595 7.61643 2.86559 7.33903 2.43827C7.44094 2.43912 7.49691 2.43898 7.56554 2.43701ZM7.49793 1.92982C7.51789 1.93426 7.53709 1.93911 7.55503 1.94432C7.54167 1.93031 7.48917 1.86773 7.48917 1.6804C7.48917 1.57841 7.49409 1.50666 7.50067 1.45621C7.68626 1.61993 7.73814 1.90534 7.60233 2.12503L7.59897 2.13052L7.61968 2.17165C7.61693 2.17304 7.61418 2.17445 7.61148 2.17585C7.5795 2.19231 7.55322 2.20584 7.59897 2.13052L7.49793 1.92982ZM7.55503 1.94432L7.57411 1.95015C7.57205 1.94949 7.56936 1.94822 7.56621 1.94618L7.55503 1.94432ZM7.00871 1.88765C7.00871 1.90643 7.01509 1.91759 7.02613 1.92357L7.01972 1.91656C7.01241 1.90152 7.00871 1.89181 7.00871 1.88765Z" fill="#FFE402"/>
<path fill-rule="evenodd" clip-rule="evenodd" d="M18.9867 1.28516L19.3961 2.81287C19.3961 2.81287 19.401 3.15995 19.0089 3.15995C18.6167 3.15995 18.597 2.81287 18.597 2.81287L18.9867 1.28516ZM22.4503 7.12034C22.4503 9.10856 20.9326 10.7203 19.0603 10.7203C17.1881 10.7203 15.6703 9.10856 15.6703 7.12034C15.6703 5.13211 17.1881 3.52034 19.0603 3.52034C20.9326 3.52034 22.4503 5.13211 22.4503 7.12034ZM20.5812 3.12094L20.6363 1.54027L19.817 2.88728C19.817 2.88728 19.7344 3.22498 20.1094 3.33962C20.4843 3.45427 20.5812 3.12094 20.5812 3.12094ZM22.1406 2.28878L21.6258 3.78427C21.6258 3.78427 21.4357 4.07471 21.1106 3.85544C20.7855 3.63618 20.9632 3.33737 20.9632 3.33737L22.1406 2.28878ZM22.4367 4.74396L23.3663 3.46434L21.9338 4.12289C21.9338 4.12289 21.6765 4.35668 21.9233 4.66141C22.17 4.96613 22.4367 4.74396 22.4367 4.74396ZM24.211 4.97794L22.9315 5.90768C22.9315 5.90768 22.6091 6.03656 22.4686 5.67049C22.3281 5.30443 22.6451 5.16158 22.6451 5.16158L24.211 4.97794ZM23.0878 7.18262L24.5832 6.6676L23.0321 6.38539C23.0321 6.38539 22.6872 6.42933 22.7146 6.82048C22.7419 7.21164 23.0878 7.18262 23.0878 7.18262ZM24.4605 8.39627L22.8798 8.45157C22.8798 8.45157 22.5406 8.37818 22.6288 7.99612C22.717 7.61406 23.0596 7.67287 23.0596 7.67287L24.4605 8.39627ZM22.3258 9.60151L23.8536 10.0108L22.7254 8.9094C22.7254 8.9094 22.4149 8.75298 22.2189 9.09256C22.0228 9.43213 22.3258 9.60151 22.3258 9.60151ZM22.8163 11.368L21.475 10.53C21.475 10.53 21.2347 10.2794 21.5215 10.012C21.8083 9.74456 22.0595 9.98492 22.0595 9.98492L22.8163 11.368ZM20.4029 11.1541L21.4406 12.3477L21.1212 10.8038C21.1212 10.8038 20.9512 10.5005 20.5988 10.6724C20.2464 10.8443 20.4029 11.1541 20.4029 11.1541ZM19.8483 12.8631L19.2049 11.4182C19.2049 11.4182 19.1459 11.0762 19.5332 11.0148C19.9204 10.9535 19.9943 11.2932 19.9943 11.2932L19.8483 12.8631ZM17.999 11.2932L18.1644 12.8662L18.7883 11.4182C18.7883 11.4182 18.8231 11.0723 18.4358 11.011C18.0485 10.9496 17.999 11.2932 17.999 11.2932ZM16.5704 12.3564L16.8721 10.8038C16.8721 10.8038 17.0199 10.4897 17.3723 10.6616C17.7247 10.8335 17.5904 11.1541 17.5904 11.1541L16.5704 12.3564ZM15.9338 9.98496L15.1913 11.3815L16.5183 10.53C16.5183 10.53 16.7405 10.2627 16.4537 9.99525C16.167 9.72783 15.9338 9.98496 15.9338 9.98496ZM14.1495 10.0279L15.2678 8.90945C15.2678 8.90945 15.566 8.73174 15.762 9.07131C15.9581 9.41089 15.6674 9.60156 15.6674 9.60156L14.1495 10.0279ZM14.9336 7.67293L13.5371 8.41555L15.1134 8.45163C15.1134 8.45163 15.4471 8.35428 15.3589 7.97222C15.2707 7.59016 14.9336 7.67293 14.9336 7.67293ZM13.4086 6.68733L14.9611 6.38545C14.9611 6.38545 15.3077 6.40486 15.2803 6.79601C15.253 7.18716 14.9054 7.18268 14.9054 7.18268L13.4086 6.68733ZM15.3481 5.16164L13.7751 4.99641L15.0617 5.90773C15.0617 5.90773 15.3928 6.01366 15.5333 5.64759C15.6739 5.28153 15.3481 5.16164 15.3481 5.16164ZM14.6144 3.47972L16.0593 4.12293C16.0593 4.12293 16.3321 4.33762 16.0853 4.64234C15.8386 4.94707 15.5564 4.74401 15.5564 4.74401L14.6144 3.47972ZM17.0299 3.33741L15.8362 2.29984L16.3673 3.7843C16.3673 3.7843 16.5778 4.06099 16.9029 3.84173C17.228 3.62246 17.0299 3.33741 17.0299 3.33741ZM17.3379 1.54605L18.1762 2.8873C18.1762 2.8873 18.2822 3.21781 17.9073 3.33245C17.5323 3.44709 17.4119 3.12095 17.4119 3.12095L17.3379 1.54605Z" fill="#FFE402"/>
<path fill-rule="evenodd" clip-rule="evenodd" d="M12.221 9.17203C12.2073 9.1195 12.1948 9.06823 12.1834 9.0182L12.2534 9.15908L12.221 9.17203ZM12.3169 9.50212C12.2803 9.38696 12.2483 9.27697 12.221 9.17203L11.7924 9.34313L11.8559 9.50212H11.8097L11.7918 9.51102C11.7661 9.38042 11.7532 9.25664 11.7532 9.13919V8.1521L12.1834 9.0182C12.1289 8.77759 12.1015 8.56591 12.1015 8.38141V7.15082L12.5994 8.39773L12.1266 8.54569L12.3124 9.13919H12.3032L12.2534 9.15908L12.4297 9.51395L12.5997 10.0571C12.4406 9.76515 12.3597 9.57135 12.3597 9.50212H12.3169ZM12.864 10.8887C12.6264 10.3611 12.4438 9.90063 12.3169 9.50212H11.8559L12.3244 10.6754L12.1509 10.4903C11.9693 10.1265 11.8489 9.80186 11.7918 9.51102L11.4104 9.70044L11.3345 9.61944V9.73816L11.3171 9.7468L11.3345 9.78184V9.91609C11.2845 9.76 11.2597 9.62317 11.2597 9.50212V7.15856L11.7532 8.1521V6.27845L12.1015 7.15082V4.78271L13.4923 9.22641L13.3945 9.25827C13.2655 8.87281 13.2015 8.5779 13.2015 8.38141H12.6515L12.5994 8.39773L12.9949 9.38842L12.8995 9.41952C12.8685 9.30968 12.8532 9.21592 12.8532 9.13919H12.3124L12.4297 9.51395L13.0439 10.7505L13.0184 10.7601C12.8451 10.4877 12.7052 10.2508 12.5997 10.0571L12.8408 10.8277L13.0184 10.7601L13.0432 10.7989L12.864 10.8887ZM13.0547 10.8169L12.8643 10.8893L12.864 10.8887L12.633 11.0046L12.3244 10.6754L12.4714 11.0436C12.4536 11.0289 12.4428 11.0187 12.4379 11.0138C12.3295 10.8308 12.2338 10.6565 12.1509 10.4903L11.4104 9.70044L11.3345 9.73816V9.78184L11.9448 11.0104H11.8845L11.8804 11.0142C11.609 10.566 11.4279 10.2075 11.3345 9.91609V10.7195L9.14986 9.16318L11.9321 12.4744C12.8213 13.5326 13.9168 14.3456 15.2129 14.9106L12.6935 14.8572L15.2541 15.5798L13.9294 16.5547L16.2175 15.8517L16.8414 16.0278C17.681 16.2648 18.1485 16.5025 18.1791 16.5748L18.297 16.8533L18.5954 16.903C19.2492 17.0117 20.4554 16.8422 22.0094 16.4978C22.5374 16.3808 23.0673 16.2504 23.4774 16.1397C23.6492 16.0934 23.7837 16.0547 23.8595 16.0299C23.8908 16.0195 23.8908 16.0195 23.9305 16.0042L23.9305 16.0042C23.9562 15.9938 23.9562 15.9938 24.015 15.9619L24.015 15.9619L24.0151 15.9619C24.0652 15.955 24.1021 15.9499 24.1268 15.9299C24.1952 15.8743 24.1701 15.7036 24.0756 15.06L24.0755 15.06C23.6423 14.944 23.5819 14.9278 23.5656 14.9477C23.563 14.9509 23.5615 14.9551 23.5598 14.9599C23.4112 14.9907 23.1794 14.9872 22.8706 14.9475C25.4564 13.6759 27.1549 12.402 27.9687 11.0911L29.4572 8.69339L28.5554 9.35127L28.8804 8.30672L27.5951 9.13265C27.7606 8.91321 27.8885 8.69475 27.9789 8.47643L28.9469 6.13672L27.4194 7.56181L28.248 4.83059L26.2818 7.46458L18.2322 13.3882L18.1067 13.3591C16.1252 12.8997 14.7336 11.4999 13.9055 9.09183L13.4923 9.22641L13.4977 9.24355L13.4002 9.27529L13.3945 9.25827L12.9949 9.38842L13.0016 9.40513L12.9044 9.43679L12.8995 9.41952L12.8597 9.43248C12.9935 9.86712 13.1395 10.2744 13.2976 10.654L13.0439 10.7505L13.063 10.7889L13.0432 10.7989L13.0547 10.8169ZM13.0734 10.8098L13.0547 10.8169L13.094 10.8779L12.6996 11.0757L12.633 11.0046L12.5039 11.0693C12.4912 11.0597 12.4804 11.051 12.4714 11.0436L12.4854 11.0787L12.5039 11.0693C12.5265 11.0865 12.5551 11.107 12.5907 11.1303L12.5272 11.1621C12.4966 11.1121 12.4668 11.0626 12.4379 11.0138L12.4345 11.0104H11.9448L12.0554 11.2331L11.9835 11.1819C11.9478 11.1247 11.9135 11.0688 11.8804 11.0142L11.8233 11.0678L11.3345 10.7195V11.0104C11.3345 11.531 11.7008 11.9246 12.3301 12.2479L12.0341 12.5685L15.325 14.913L15.2129 14.9106C15.3206 14.9576 15.4298 15.0029 15.5403 15.0464L15.826 15.159L15.2541 15.5798L16.2175 15.8517L16.9855 15.6158L19.7189 16.6926L18.8372 16.0645C18.9448 16.0636 19.0493 16.0623 19.1508 16.0605C19.1079 15.9816 19.0532 15.9069 18.9865 15.8357C18.9055 15.8336 18.835 15.8277 18.7758 15.8179L18.7457 15.9993L17.8247 15.3432C18.1772 15.2216 18.5195 15.0942 18.8516 14.9608C20.2157 14.9462 21.0334 14.8731 21.1547 14.7831L21.3652 14.6269L21.6191 14.6921C21.8636 14.7548 22.0888 14.8071 22.2937 14.849L22.4681 15.142C22.6046 15.0772 22.7387 15.0123 22.8706 14.9475C22.8379 14.9433 22.8043 14.9387 22.7699 14.9337L27.8256 11.2453L27.4025 10.8527C27.9377 10.5771 28.2866 10.2155 28.4314 9.74988L28.5554 9.35127L28.0105 9.74879L27.9063 9.5865L27.3811 9.42312C27.3325 9.57916 27.1744 9.73527 26.8941 9.87858C27.1752 9.62787 27.4089 9.37964 27.5951 9.13265L26.8012 9.64287L27.8458 8.66831L27.194 8.21642C27.2507 8.08811 27.2981 7.96153 27.336 7.83658L27.4194 7.56181L27.0512 7.90524L26.5038 7.62859L26.7569 7.11496L26.2818 7.46458L25.1566 8.972L24.7735 8.65123C23.7458 10.7366 21.8962 12.3924 19.2059 13.614L18.2322 13.3882L17.9541 13.5929L17.9825 13.3449C16.1483 13.3449 14.7962 11.9848 13.911 9.10891L13.4977 9.24355L13.8906 10.4991L13.498 10.6484L13.4736 10.5871L13.8672 10.4375C13.6654 9.98961 13.51 9.60067 13.4002 9.27529L13.0016 9.40513L13.4736 10.5871L13.4398 10.5999L13.4651 10.5873C13.1725 10.11 12.9875 9.72124 12.9044 9.43679L12.8653 9.44955C13.0096 9.86942 13.171 10.2644 13.3494 10.6343L13.2976 10.654L13.3036 10.6683L13.063 10.7889L13.0734 10.8098ZM13.3232 10.7148L13.0734 10.8098L13.1046 10.8726L13.094 10.8779L13.1318 10.9359L12.7652 11.1457L12.6996 11.0757L12.5907 11.1303C12.6186 11.1486 12.6507 11.1686 12.6875 11.1901L12.3035 11.4099L12.0554 11.2331L12.1787 11.4813L12.3035 11.4099L12.3614 11.4511L12.2108 11.5374C12.1298 11.4133 12.054 11.2949 11.9835 11.1819L11.8233 11.0678L11.4832 11.3866L12.1889 12.1393L12.5902 11.7632L12.646 11.6538L14.4386 12.9309L15.1014 13.6381C14.199 13.1637 13.4244 12.5405 12.7743 11.7667L12.3301 12.2479L12.3401 12.2531L15.1457 13.6852L15.1014 13.6381C15.3707 13.7796 15.6514 13.9079 15.9435 14.023L15.4591 14.9159L15.325 14.913L15.4228 14.9827L15.4591 14.9159L16.1368 14.9302L15.826 15.159L16.9855 15.6158L17.0262 15.6033C17.2979 15.5198 17.5641 15.4331 17.8247 15.3432L17.6249 15.2009L17.9494 14.9622C18.272 14.9644 18.5732 14.9638 18.8516 14.9608C19.258 14.7977 19.6492 14.6257 20.025 14.4449H22.0532L22.2937 14.849C22.3399 14.8585 22.385 14.8674 22.429 14.8758L22.5563 15.0895L22.7699 14.9337C22.6643 14.9183 22.5506 14.899 22.429 14.8758L22.1726 14.4449H22.7898L22.0738 14.2789L21.9961 14.1484C24.1237 13.1376 25.6282 12.145 26.5081 11.1913C26.8476 11.0968 27.1464 10.9846 27.4025 10.8527L27.2187 10.6821L28.2036 10.0492L28.0105 9.74879L26.3503 10.96L26.1428 10.4754C26.4225 10.2745 26.673 10.0758 26.8941 9.87858C26.737 9.95888 26.5416 10.0352 26.3057 10.1052L26.8012 9.64287L25.2962 10.61C26.2343 9.74427 26.8687 8.95206 27.194 8.21642L27.1276 8.1704L27.2504 8.00589L27.0512 7.90524L25.7856 9.08595L26.5038 7.62859L26.2834 7.51721C26.1488 7.96065 25.8147 8.48282 25.2778 9.07353L25.1566 8.972L24.4784 9.88059L24.6475 10.033L19.6435 13.7155L19.2059 13.614C18.7876 13.8039 18.3491 13.9834 17.8901 14.1523L17.9541 13.5929L17.1123 14.2124C15.4981 13.6352 14.2555 12.4648 13.3947 10.7271L13.507 10.6708L13.498 10.6484L13.3783 10.6939L13.3537 10.6432L13.4398 10.5999L13.3494 10.6343L13.3537 10.6432L13.3036 10.6683L13.3232 10.7148ZM13.3401 10.7545L13.1046 10.8726L13.1638 10.9919L12.8106 11.1941L12.7652 11.1457L12.6875 11.1901C12.7079 11.202 12.7296 11.2143 12.7529 11.2271L12.3614 11.4511L12.646 11.6538L12.8402 11.2733C12.809 11.2574 12.7799 11.242 12.7529 11.2271L12.8106 11.1941L14.4386 12.9309L16.6819 14.5291L16.1368 14.9302L16.9017 14.9465L17.1906 15.5205L17.6249 15.2009L17.2783 14.9539C17.5112 14.958 17.735 14.9607 17.9494 14.9622L18.6522 14.4449H20.025C20.3202 14.3029 20.606 14.1555 20.8823 14.0027L21.9353 14.2468L22.0532 14.4449H22.1726L22.0738 14.2789L21.9353 14.2468L21.908 14.2009L25.7882 11.37L26.2768 11.2515C26.3559 11.2323 26.433 11.2122 26.5081 11.1913C26.5462 11.15 26.5832 11.1087 26.6191 11.0675L27.2187 10.6821L27.0342 10.5109C26.92 10.6948 26.7817 10.8803 26.6191 11.0675L26.4444 11.1797L26.3503 10.96L25.7882 11.37L23.796 11.8536C24.0191 11.6317 24.2301 11.403 24.429 11.1673L25.0666 10.7576L25.2841 11.0432C25.5957 10.8518 25.882 10.6626 26.1428 10.4754L26.076 10.3194L26.3057 10.1052C26.2155 10.1319 26.1195 10.1577 26.0174 10.1825L26.076 10.3194L25.3714 10.9767L25.1592 10.6981L25.2912 10.6132L25.292 10.6139L25.2962 10.61L25.2912 10.6132L25.0314 10.3791C25.0508 10.351 25.07 10.3228 25.0891 10.2945L25.3598 10.5386L27.1276 8.1704L26.9624 8.05587C26.7836 8.48803 26.3117 8.99306 25.5446 9.55019C25.6197 9.41443 25.6915 9.27686 25.7602 9.13748L25.7856 9.08595L25.5524 9.30348L25.2778 9.07353C25.0657 9.30695 24.8219 9.55108 24.5462 9.80528L24.7309 9.97168L24.6475 10.033L24.71 10.0894L24.621 10.1724L24.9098 10.5516C24.7582 10.7618 24.598 10.9671 24.429 11.1673L23.097 12.0233L23.796 11.8536C22.9841 12.6612 22.0124 13.3774 20.8823 14.0027L19.6435 13.7155L18.6522 14.4449H17.9825C17.7225 14.4449 17.4706 14.4247 17.2268 14.3844C17.2944 14.3619 17.3615 14.3392 17.4283 14.3164C17.5689 14.3587 17.7123 14.3969 17.8582 14.4307L17.8901 14.1523C17.7384 14.2081 17.5844 14.2628 17.4283 14.3164C17.3214 14.2842 17.2161 14.2495 17.1123 14.2124L16.9527 14.3298C15.4036 13.9682 14.1976 12.7581 13.3401 10.7545ZM13.3401 10.7545L13.3947 10.7271L13.3783 10.6939L13.3232 10.7148L13.3401 10.7545ZM16.7106 14.5495L16.6819 14.5291L16.9527 14.3298C17.0429 14.3509 17.1343 14.3691 17.2268 14.3844C17.0573 14.4407 16.8852 14.4958 16.7106 14.5495ZM24.9764 10.458C24.9949 10.4318 25.0132 10.4055 25.0314 10.3791L24.7202 10.0986C24.7504 10.08 24.7803 10.0615 24.81 10.043L25.0891 10.2945C25.2521 10.0528 25.4039 9.80466 25.5446 9.55019C25.3241 9.71031 25.0793 9.87474 24.81 10.043L24.7844 10.02L25.2296 9.60467L25.5929 9.33734L25.5524 9.30348L25.2296 9.60467L24.7309 9.97168L24.7844 10.02L24.71 10.0894L24.7202 10.0986L24.7083 10.1059L24.9764 10.458ZM24.9764 10.458L25.1592 10.6981L25.0666 10.7576L24.9098 10.5516C24.9322 10.5205 24.9544 10.4894 24.9764 10.458ZM16.7106 14.5495L17.2783 14.9539C17.1877 14.9524 17.0957 14.9506 17.0024 14.9486L16.9017 14.9465L16.7031 14.5518L16.7106 14.5495ZM18.7457 15.9993L18.7347 16.0653L18.8372 16.0645L18.7457 15.9993ZM21.81 15.6666L21.6498 15.4506C21.5693 15.4681 21.4898 15.4851 21.4113 15.5015L21.3456 15.7575C21.4098 15.774 21.473 15.7899 21.5351 15.8052C21.649 15.7644 21.7402 15.7183 21.81 15.6666Z" fill="#FFE402"/>
</g>
</g>
<rect x="0.5" y="1" width="31" height="19" rx="0.5" stroke="#FF8744" stroke-opacity="0.3"/>
<defs>
<clipPath id="clip0_1_2997">
<rect y="0.5" width="32" height="20" rx="1" fill="white"/>
</clipPath>
</defs>
</svg>
