<svg width="25" height="25" viewBox="0 0 25 25" fill="none" xmlns="http://www.w3.org/2000/svg">
<path fill-rule="evenodd" clip-rule="evenodd" d="M5.67192 12.4996C5.67192 11.7202 5.8013 10.9728 6.03248 10.2719L1.98811 7.18359C1.19986 8.78391 0.755859 10.5873 0.755859 12.4996C0.755859 14.4104 1.19948 16.2125 1.98642 17.8118L6.02855 14.7175C5.79961 14.0198 5.67192 13.2753 5.67192 12.4996Z" fill="#FBBC05"/>
<path fill-rule="evenodd" clip-rule="evenodd" d="M12.7731 5.40912C14.4664 5.40912 15.9958 6.00913 17.1975 6.99088L20.6933 3.5C18.5631 1.64544 15.832 0.5 12.7731 0.5C8.02409 0.5 3.94259 3.21575 1.98828 7.184L6.03247 10.2723C6.96434 7.44369 9.62066 5.40912 12.7731 5.40912Z" fill="#EA4335"/>
<path fill-rule="evenodd" clip-rule="evenodd" d="M12.7731 19.5898C9.62084 19.5898 6.96453 17.5552 6.03266 14.7266L1.98828 17.8143C3.94259 21.7831 8.02409 24.4989 12.7731 24.4989C15.7041 24.4989 18.5025 23.4581 20.6027 21.5081L16.7638 18.5403C15.6807 19.2226 14.3166 19.5898 12.7731 19.5898Z" fill="#34A853"/>
<path fill-rule="evenodd" clip-rule="evenodd" d="M24.2441 12.4982C24.2441 11.789 24.1348 11.0253 23.9709 10.3164H12.7734V14.9527H19.2189C18.8966 16.5335 18.0195 17.7487 16.7642 18.5396L20.6031 21.5073C22.8092 19.4598 24.2441 16.4096 24.2441 12.4982Z" fill="#4285F4"/>
</svg>
