<svg width="45" height="46" viewBox="0 0 45 46" fill="none" xmlns="http://www.w3.org/2000/svg">
<path fill-rule="evenodd" clip-rule="evenodd" d="M22.5 6.125C17.9167 6.125 17.343 6.14413 15.543 6.22625C13.7464 6.30838 12.519 6.59413 11.4457 7.0115C10.3207 7.4345 9.30037 8.09825 8.45662 8.95775C7.5985 9.80053 6.93434 10.8202 6.51038 11.9457C6.09525 13.019 5.80838 14.2475 5.72625 16.0441C5.64525 17.843 5.625 18.4156 5.625 23C5.625 27.5844 5.64413 28.157 5.72625 29.957C5.80838 31.7536 6.09413 32.981 6.5115 34.0543C6.9345 35.1793 7.59825 36.1996 8.45775 37.0434C9.30055 37.9015 10.3202 38.5656 11.4457 38.9896C12.519 39.4059 13.7464 39.6916 15.543 39.7738C17.343 39.8559 17.9167 39.875 22.5 39.875C27.0833 39.875 27.657 39.8559 29.457 39.7738C31.2536 39.6916 32.481 39.4059 33.5543 38.9885C34.6793 38.5655 35.6996 37.9018 36.5434 37.0422C37.4015 36.1995 38.0657 35.1798 38.4896 34.0543C38.9059 32.981 39.1916 31.7536 39.2738 29.957C39.3559 28.157 39.375 27.5833 39.375 23C39.375 18.4167 39.3559 17.843 39.2738 16.043C39.1916 14.2464 38.9059 13.019 38.4885 11.9457C38.0648 10.8197 37.4007 9.79961 36.5422 8.95662C35.6995 8.0985 34.6798 7.43434 33.5543 7.01038C32.481 6.59525 31.2525 6.30838 29.4559 6.22625C27.657 6.14525 27.0844 6.125 22.5 6.125ZM22.5 9.16587C27.0056 9.16587 27.54 9.18275 29.3197 9.26375C30.9645 9.33912 31.8577 9.6125 32.4529 9.84537C33.2404 10.1502 33.8029 10.517 34.3935 11.1065C34.9841 11.6971 35.3498 12.2596 35.6546 13.0471C35.8864 13.6423 36.1609 14.5355 36.2362 16.1803C36.3172 17.96 36.3341 18.4944 36.3341 23C36.3341 27.5056 36.3172 28.04 36.2362 29.8197C36.1609 31.4645 35.8875 32.3577 35.6546 32.9529C35.3846 33.6859 34.9536 34.349 34.3935 34.8935C33.8491 35.4537 33.1859 35.8847 32.4529 36.1546C31.8577 36.3864 30.9645 36.6609 29.3197 36.7362C27.54 36.8172 27.0068 36.8341 22.5 36.8341C17.9932 36.8341 17.46 36.8172 15.6803 36.7362C14.0355 36.6609 13.1423 36.3875 12.5471 36.1546C11.8141 35.8846 11.151 35.4536 10.6065 34.8935C10.0464 34.3489 9.61552 33.6858 9.34537 32.9529C9.11362 32.3577 8.83912 31.4645 8.76375 29.8197C8.68275 28.04 8.66587 27.5056 8.66587 23C8.66587 18.4944 8.68275 17.96 8.76375 16.1803C8.83912 14.5355 9.1125 13.6423 9.34537 13.0471C9.65025 12.2596 10.017 11.6971 10.6065 11.1065C11.1509 10.5463 11.8141 10.1153 12.5471 9.84537C13.1423 9.61362 14.0355 9.33912 15.6803 9.26375C17.46 9.18275 17.9944 9.16587 22.5 9.16587Z" fill="#B8552C"/>
<path fill-rule="evenodd" clip-rule="evenodd" d="M22.4999 28.6306C21.7605 28.6306 21.0283 28.485 20.3452 28.202C19.662 27.919 19.0413 27.5043 18.5185 26.9814C17.9956 26.4586 17.5809 25.8379 17.2979 25.1547C17.0149 24.4716 16.8693 23.7394 16.8693 23C16.8693 22.2605 17.0149 21.5284 17.2979 20.8452C17.5809 20.1621 17.9956 19.5414 18.5185 19.0185C19.0413 18.4957 19.662 18.0809 20.3452 17.798C21.0283 17.515 21.7605 17.3693 22.4999 17.3693C23.9933 17.3693 25.4254 17.9626 26.4814 19.0185C27.5373 20.0745 28.1305 21.5066 28.1305 23C28.1305 24.4933 27.5373 25.9255 26.4814 26.9814C25.4254 28.0374 23.9933 28.6306 22.4999 28.6306ZM22.4999 14.3262C20.1995 14.3262 17.9933 15.2401 16.3667 16.8667C14.74 18.4933 13.8262 20.6995 13.8262 23C13.8262 25.3004 14.74 27.5066 16.3667 29.1332C17.9933 30.7599 20.1995 31.6737 22.4999 31.6737C24.8003 31.6737 27.0065 30.7599 28.6332 29.1332C30.2598 27.5066 31.1737 25.3004 31.1737 23C31.1737 20.6995 30.2598 18.4933 28.6332 16.8667C27.0065 15.2401 24.8003 14.3262 22.4999 14.3262ZM33.697 14.1687C33.697 14.7125 33.481 15.234 33.0965 15.6185C32.712 16.003 32.1905 16.219 31.6467 16.219C31.103 16.219 30.5814 16.003 30.1969 15.6185C29.8124 15.234 29.5964 14.7125 29.5964 14.1687C29.5964 13.6249 29.8124 13.1034 30.1969 12.7189C30.5814 12.3344 31.103 12.1184 31.6467 12.1184C32.1905 12.1184 32.712 12.3344 33.0965 12.7189C33.481 13.1034 33.697 13.6249 33.697 14.1687Z" fill="#B8552C"/>
</svg>
