<svg width="45" height="46" viewBox="0 0 45 46" fill="none" xmlns="http://www.w3.org/2000/svg">
<path fill-rule="evenodd" clip-rule="evenodd" d="M37.1101 10.6526C38.7227 11.0858 39.9984 12.3615 40.4316 13.9741C41.2259 16.9106 41.25 23.0001 41.25 23.0001C41.25 23.0001 41.25 29.1137 40.4557 32.0261C40.0225 33.6388 38.7468 34.9144 37.1341 35.3477C34.2218 36.142 22.5 36.142 22.5 36.142C22.5 36.142 10.7782 36.142 7.86586 35.3477C6.25321 34.9144 4.97754 33.6388 4.54429 32.0261C3.75 29.0897 3.75 23.0001 3.75 23.0001C3.75 23.0001 3.75 16.9106 4.52022 13.9982C4.95347 12.3856 6.22914 11.1099 7.84178 10.6766C10.7542 9.88234 22.4759 9.85828 22.4759 9.85828C22.4759 9.85828 34.1977 9.85828 37.1101 10.6526ZM28.4692 23.0001L18.7452 28.6323V17.3679L28.4692 23.0001Z" fill="#B8552C"/>
</svg>
