<svg width="20" height="17" viewBox="0 0 20 17" fill="none" xmlns="http://www.w3.org/2000/svg">
<path d="M9.14726 3.07234L10 4.46447L10.8527 3.07234C11.6307 1.80222 12.9943 1 14.5455 1C16.9576 1 19 3.06598 19 5.66667C19 6.79372 18.4981 8.00828 17.6205 9.25144C16.7495 10.4855 15.5675 11.6635 14.3524 12.6964C13.1418 13.7254 11.9263 14.5867 11.011 15.1919C10.6045 15.4606 10.2591 15.6776 10.0019 15.835C9.74452 15.6763 9.3985 15.4576 8.99127 15.1867C8.07562 14.5778 6.85977 13.7118 5.64869 12.6796C4.43302 11.6434 3.25051 10.4634 2.37901 9.23088C1.50055 7.98846 1 6.78031 1 5.66667C1 3.06598 3.04245 1 5.45455 1C7.00575 1 8.36926 1.80222 9.14726 3.07234Z" stroke="#B8552C" stroke-width="2"/>
</svg>
