<svg width="45" height="46" viewBox="0 0 45 46" fill="none" xmlns="http://www.w3.org/2000/svg">
<path d="M33.9667 11.7668C31.9467 10.4497 30.4887 8.34241 30.0339 5.88587C29.9357 5.35512 29.8817 4.80888 29.8817 4.25H23.4347L23.4243 30.0874C23.316 32.9808 20.9346 35.303 18.0153 35.303C17.108 35.303 16.2536 35.0761 15.5014 34.6803C13.7764 33.7725 12.5959 31.9644 12.5959 29.8837C12.5959 26.8953 15.0272 24.4641 18.0153 24.4641C18.5731 24.4641 19.1082 24.5561 19.6144 24.7146V18.1329C19.0906 18.0616 18.5583 18.017 18.0153 18.017C11.472 18.017 6.14893 23.3404 6.14893 29.8837C6.14893 33.8983 8.15471 37.451 11.2148 39.5993C13.1422 40.9525 15.4868 41.75 18.0153 41.75C24.5586 41.75 29.8817 36.4269 29.8817 29.8837V16.7819C32.4103 18.5968 35.5083 19.6663 38.8511 19.6663V13.2192C37.0504 13.2192 35.3732 12.6839 33.9667 11.7668Z" fill="#B8552C"/>
</svg>
