<svg width="35" height="34" viewBox="0 0 35 34" fill="none" xmlns="http://www.w3.org/2000/svg">
<path d="M17.5708 0.669312C8.30802 0.669312 0.769798 7.92992 0.766532 16.853C0.764355 19.7065 1.53952 22.4914 3.00927 24.9443L0.625 33.3306L9.53391 31.0802C12.012 32.3765 14.7675 33.0527 17.5642 33.0508H17.5708C26.8335 33.0508 34.3717 25.7891 34.375 16.866C34.3772 12.5439 32.6309 8.47536 29.4573 5.41717C26.2848 2.3579 22.066 0.6704 17.5708 0.669312ZM17.5708 30.3171H17.5653C15.0591 30.3171 12.6008 29.6682 10.456 28.4423L9.94436 28.1505L4.65976 29.4853L6.07073 24.5208L5.73867 24.0123C4.34393 21.8852 3.60146 19.3966 3.60262 16.853C3.60589 9.4356 9.8725 3.40306 17.5762 3.40306C21.3061 3.40415 24.8129 4.80532 27.4508 7.34746C30.0887 9.88959 31.54 13.27 31.5378 16.865C31.5346 24.2823 25.269 30.3171 17.5697 30.3171H17.5708ZM25.232 20.241C24.8118 20.0396 22.7476 19.0609 22.3622 18.9248C21.9779 18.7909 21.6981 18.7212 21.4183 19.1262C21.1396 19.5312 20.3339 20.4425 20.09 20.7114C19.844 20.9814 19.599 21.014 19.1788 20.8126C18.7585 20.6101 17.4053 20.1833 15.8027 18.805C14.554 17.7337 13.7113 16.4099 13.4663 16.0038C13.2214 15.5999 13.4402 15.381 13.6503 15.1796C13.8387 15 14.0706 14.7082 14.2796 14.472C14.4886 14.2357 14.5583 14.067 14.6998 13.797C14.8392 13.5281 14.7695 13.2907 14.6639 13.0893C14.5583 12.8857 13.72 10.8956 13.3683 10.0866C13.0287 9.29842 12.6825 9.40403 12.4244 9.39096C12.1795 9.38008 11.9008 9.37681 11.6188 9.37681C11.3412 9.37681 10.885 9.47806 10.4996 9.88306C10.1153 10.2881 9.02984 11.2657 9.02984 13.2559C9.02984 15.2471 10.5344 17.1698 10.7446 17.4398C10.9547 17.7087 13.7058 21.7946 17.9181 23.5475C18.9197 23.9623 19.7014 24.2116 20.3121 24.3988C21.3181 24.7069 22.2337 24.6623 22.9566 24.5589C23.7623 24.4424 25.441 23.5812 25.7894 22.6373C26.14 21.6934 26.14 20.8834 26.0355 20.7146C25.9331 20.5459 25.6523 20.4446 25.232 20.241Z" fill="#B8552C"/>
</svg>
