<svg width="30" height="30" viewBox="0 0 30 30" fill="none" xmlns="http://www.w3.org/2000/svg">
<path d="M14.6 28.2C22.111 28.2 28.2 22.1111 28.2 14.6C28.2 7.08893 22.111 1 14.6 1C7.0889 1 1 7.08893 1 14.6C1 22.1111 7.0889 28.2 14.6 28.2Z" stroke="#B8552C" stroke-width="2" stroke-linecap="round" stroke-linejoin="round"/>
<path d="M20.8 20.7C20.8 21.5284 20.1284 22.2 19.3 22.2C18.4716 22.2 17.8 21.5284 17.8 20.7C17.8 19.8715 18.4716 19.2 19.3 19.2C20.1284 19.2 20.8 19.8715 20.8 20.7Z" stroke="#B8552C"/>
<path d="M9.20001 16.7C9.20001 17.5284 8.52844 18.2 7.70001 18.2C6.87159 18.2 6.20001 17.5284 6.20001 16.7C6.20001 15.8715 6.87159 15.2 7.70001 15.2C8.52844 15.2 9.20001 15.8715 9.20001 16.7Z" stroke="#B8552C"/>
<path d="M18.2 7C18.2 7.82843 17.5284 8.5 16.7 8.5C15.8716 8.5 15.2 7.82843 15.2 7C15.2 6.17157 15.8716 5.5 16.7 5.5C17.5284 5.5 18.2 6.17157 18.2 7Z" stroke="#B8552C"/>
<path d="M17.4 14.6C17.4 14.9867 17.0866 15.3 16.7 15.3C16.3134 15.3 16 14.9866 16 14.6C16 14.2134 16.3134 13.9 16.7 13.9C17.0866 13.9 17.4 14.2134 17.4 14.6Z" stroke="#B8552C"/>
<path d="M22.8 12.5C22.8 12.8866 22.4866 13.2 22.1 13.2C21.7134 13.2 21.4 12.8866 21.4 12.5C21.4 12.1134 21.7134 11.8 22.1 11.8C22.4866 11.8 22.8 12.1134 22.8 12.5Z" stroke="#B8552C"/>
<path d="M12.7 21.5C12.7 21.8866 12.3866 22.2 12 22.2C11.6134 22.2 11.3 21.8866 11.3 21.5C11.3 21.1134 11.6134 20.8 12 20.8C12.3866 20.8 12.7 21.1134 12.7 21.5Z" stroke="#B8552C"/>
<path d="M10.2 10.2C10.2 10.5866 9.88662 10.9 9.5 10.9C9.11338 10.9 8.79999 10.5866 8.79999 10.2C8.79999 9.81341 9.1134 9.5 9.5 9.5C9.8866 9.5 10.2 9.81341 10.2 10.2Z" stroke="#B8552C"/>
</svg>
